<?xml version="1.0" encoding="UTF-8" standalone="no"?>
<!DOCTYPE svg PUBLIC "-//W3C//DTD SVG 1.1//EN"
 "http://www.w3.org/Graphics/SVG/1.1/DTD/svg11.dtd">
<!-- Generated by graphviz version 2.40.1 (20161225.0304)
 -->
<!-- Title: G Pages: 1 -->
<svg width="245pt" height="131pt"
 viewBox="0.00 0.00 245.24 131.00" xmlns="http://www.w3.org/2000/svg" xmlns:xlink="http://www.w3.org/1999/xlink">
<g id="graph0" class="graph" transform="scale(1 1) rotate(0) translate(4 127)">
<title>G</title>
<polygon fill="#ffffff" stroke="transparent" points="-4,4 -4,-127 241.2439,-127 241.2439,4 -4,4"/>
<!-- COVID&#45;19 -->
<g id="node1" class="node">
<title>COVID&#45;19</title>
<ellipse fill="none" stroke="#000000" cx="113.8472" cy="-105" rx="50.0912" ry="18"/>
<text text-anchor="middle" x="113.8472" y="-101.3" font-family="Times,serif" font-size="14.00" fill="#000000">COVID&#45;19</text>
</g>
<!-- China -->
<g id="node2" class="node">
<title>China</title>
<ellipse fill="none" stroke="#000000" cx="31.8472" cy="-18" rx="31.6951" ry="18"/>
<text text-anchor="middle" x="31.8472" y="-14.3" font-family="Times,serif" font-size="14.00" fill="#000000">China</text>
</g>
<!-- COVID&#45;19&#45;&gt;China -->
<g id="edge1" class="edge">
<title>COVID&#45;19&#45;&gt;China</title>
<path fill="none" stroke="#000000" d="M89.088,-88.9038C81.1874,-83.1432 72.7193,-76.2645 65.8472,-69 58.8656,-61.6198 52.3628,-52.6514 46.9525,-44.3058"/>
<polygon fill="#000000" stroke="#000000" points="49.7919,-42.2437 41.5397,-35.5989 43.847,-45.9395 49.7919,-42.2437"/>
<text text-anchor="middle" x="87.8472" y="-57.8" font-family="Times,serif" font-size="14.00" fill="#000000">in&#45;place</text>
</g>
<!-- Hubei -->
<g id="node3" class="node">
<title>Hubei</title>
<ellipse fill="none" stroke="#000000" cx="113.8472" cy="-18" rx="32.4942" ry="18"/>
<text text-anchor="middle" x="113.8472" y="-14.3" font-family="Times,serif" font-size="14.00" fill="#000000">Hubei</text>
</g>
<!-- COVID&#45;19&#45;&gt;Hubei -->
<g id="edge2" class="edge">
<title>COVID&#45;19&#45;&gt;Hubei</title>
<path fill="none" stroke="#000000" d="M113.8472,-86.9735C113.8472,-75.1918 113.8472,-59.5607 113.8472,-46.1581"/>
<polygon fill="#000000" stroke="#000000" points="117.3473,-46.0033 113.8472,-36.0034 110.3473,-46.0034 117.3473,-46.0033"/>
<text text-anchor="middle" x="135.8472" y="-57.8" font-family="Times,serif" font-size="14.00" fill="#000000">in&#45;place</text>
</g>
<!-- Wuhan -->
<g id="node4" class="node">
<title>Wuhan</title>
<ellipse fill="none" stroke="#000000" cx="200.8472" cy="-18" rx="36.2938" ry="18"/>
<text text-anchor="middle" x="200.8472" y="-14.3" font-family="Times,serif" font-size="14.00" fill="#000000">Wuhan</text>
</g>
<!-- COVID&#45;19&#45;&gt;Wuhan -->
<g id="edge3" class="edge">
<title>COVID&#45;19&#45;&gt;Wuhan</title>
<path fill="none" stroke="#000000" d="M137.8428,-88.998C145.8613,-83.1441 154.5951,-76.1846 161.8472,-69 169.5676,-61.3514 177.0643,-52.1311 183.3879,-43.6458"/>
<polygon fill="#000000" stroke="#000000" points="186.2614,-45.6451 189.2852,-35.4909 180.5891,-41.5431 186.2614,-45.6451"/>
<text text-anchor="middle" x="195.8472" y="-57.8" font-family="Times,serif" font-size="14.00" fill="#000000">in&#45;place</text>
</g>
</g>
</svg>
