<?xml version="1.0" encoding="UTF-8" standalone="no"?>
<!DOCTYPE svg PUBLIC "-//W3C//DTD SVG 1.1//EN"
 "http://www.w3.org/Graphics/SVG/1.1/DTD/svg11.dtd">
<!-- Generated by graphviz version 2.40.1 (20161225.0304)
 -->
<!-- Title: G Pages: 1 -->
<svg width="929pt" height="131pt"
 viewBox="0.00 0.00 928.83 131.00" xmlns="http://www.w3.org/2000/svg" xmlns:xlink="http://www.w3.org/1999/xlink">
<g id="graph0" class="graph" transform="scale(1 1) rotate(0) translate(4 127)">
<title>G</title>
<polygon fill="#ffffff" stroke="transparent" points="-4,4 -4,-127 924.8276,-127 924.8276,4 -4,4"/>
<!-- COVID&#45;19 -->
<g id="node1" class="node">
<title>COVID&#45;19</title>
<ellipse fill="none" stroke="#000000" cx="344.0934" cy="-105" rx="50.0912" ry="18"/>
<text text-anchor="middle" x="344.0934" y="-101.3" font-family="Times,serif" font-size="14.00" fill="#000000">COVID&#45;19</text>
</g>
<!-- chest CT imaging -->
<g id="node2" class="node">
<title>chest CT imaging</title>
<ellipse fill="none" stroke="#000000" cx="74.0934" cy="-18" rx="74.187" ry="18"/>
<text text-anchor="middle" x="74.0934" y="-14.3" font-family="Times,serif" font-size="14.00" fill="#000000">chest CT imaging</text>
</g>
<!-- COVID&#45;19&#45;&gt;chest CT imaging -->
<g id="edge1" class="edge">
<title>COVID&#45;19&#45;&gt;chest CT imaging</title>
<path fill="none" stroke="#000000" d="M303.1916,-94.4255C277.7098,-87.6304 244.3262,-78.3513 215.0934,-69 184.3998,-59.1814 150.4189,-46.9326 123.5078,-36.9"/>
<polygon fill="#000000" stroke="#000000" points="124.5245,-33.5435 113.9322,-33.3127 122.0688,-40.0986 124.5245,-33.5435"/>
<text text-anchor="middle" x="233.0934" y="-57.8" font-family="Times,serif" font-size="14.00" fill="#000000">entails</text>
</g>
<!-- damage -->
<g id="node3" class="node">
<title>damage</title>
<ellipse fill="none" stroke="#000000" cx="204.0934" cy="-18" rx="38.1938" ry="18"/>
<text text-anchor="middle" x="204.0934" y="-14.3" font-family="Times,serif" font-size="14.00" fill="#000000">damage</text>
</g>
<!-- COVID&#45;19&#45;&gt;damage -->
<g id="edge2" class="edge">
<title>COVID&#45;19&#45;&gt;damage</title>
<path fill="none" stroke="#000000" d="M314.9857,-90.3071C303.0633,-84.0461 289.2407,-76.4715 277.0934,-69 262.1861,-59.8309 246.1884,-48.7984 232.9796,-39.3434"/>
<polygon fill="#000000" stroke="#000000" points="234.8976,-36.4113 224.7417,-33.3934 230.7989,-42.0859 234.8976,-36.4113"/>
<text text-anchor="middle" x="295.0934" y="-57.8" font-family="Times,serif" font-size="14.00" fill="#000000">entails</text>
</g>
<!-- edema -->
<g id="node4" class="node">
<title>edema</title>
<ellipse fill="none" stroke="#000000" cx="295.0934" cy="-18" rx="34.394" ry="18"/>
<text text-anchor="middle" x="295.0934" y="-14.3" font-family="Times,serif" font-size="14.00" fill="#000000">edema</text>
</g>
<!-- COVID&#45;19&#45;&gt;edema -->
<g id="edge3" class="edge">
<title>COVID&#45;19&#45;&gt;edema</title>
<path fill="none" stroke="#000000" d="M333.9406,-86.9735C327.0167,-74.6801 317.7323,-58.1956 309.9764,-44.4249"/>
<polygon fill="#000000" stroke="#000000" points="312.8559,-42.4052 304.8989,-35.4097 306.7567,-45.8404 312.8559,-42.4052"/>
<text text-anchor="middle" x="341.0934" y="-57.8" font-family="Times,serif" font-size="14.00" fill="#000000">entails</text>
</g>
<!-- morbidity -->
<g id="node5" class="node">
<title>morbidity</title>
<ellipse fill="none" stroke="#000000" cx="394.0934" cy="-18" rx="46.2923" ry="18"/>
<text text-anchor="middle" x="394.0934" y="-14.3" font-family="Times,serif" font-size="14.00" fill="#000000">morbidity</text>
</g>
<!-- COVID&#45;19&#45;&gt;morbidity -->
<g id="edge4" class="edge">
<title>COVID&#45;19&#45;&gt;morbidity</title>
<path fill="none" stroke="#000000" d="M354.4535,-86.9735C361.4722,-74.7609 370.868,-58.4123 378.7503,-44.697"/>
<polygon fill="#000000" stroke="#000000" points="381.9694,-46.1199 383.9177,-35.7057 375.9003,-42.6318 381.9694,-46.1199"/>
<text text-anchor="middle" x="390.0934" y="-57.8" font-family="Times,serif" font-size="14.00" fill="#000000">entails</text>
</g>
<!-- mortality -->
<g id="node6" class="node">
<title>mortality</title>
<ellipse fill="none" stroke="#000000" cx="502.0934" cy="-18" rx="43.5923" ry="18"/>
<text text-anchor="middle" x="502.0934" y="-14.3" font-family="Times,serif" font-size="14.00" fill="#000000">mortality</text>
</g>
<!-- COVID&#45;19&#45;&gt;mortality -->
<g id="edge5" class="edge">
<title>COVID&#45;19&#45;&gt;mortality</title>
<path fill="none" stroke="#000000" d="M372.644,-90.1174C384.8401,-83.6999 399.2071,-76.0603 412.0934,-69 430.5655,-58.8793 451.0018,-47.3277 467.7257,-37.7805"/>
<polygon fill="#000000" stroke="#000000" points="469.6566,-40.7082 476.5987,-32.7046 466.1807,-34.6322 469.6566,-40.7082"/>
<text text-anchor="middle" x="455.0934" y="-57.8" font-family="Times,serif" font-size="14.00" fill="#000000">entails</text>
</g>
<!-- reverse transcription polymerase chain reaction -->
<g id="node7" class="node">
<title>reverse transcription polymerase chain reaction</title>
<ellipse fill="none" stroke="#000000" cx="742.0934" cy="-18" rx="178.9686" ry="18"/>
<text text-anchor="middle" x="742.0934" y="-14.3" font-family="Times,serif" font-size="14.00" fill="#000000">reverse transcription polymerase chain reaction</text>
</g>
<!-- COVID&#45;19&#45;&gt;reverse transcription polymerase chain reaction -->
<g id="edge6" class="edge">
<title>COVID&#45;19&#45;&gt;reverse transcription polymerase chain reaction</title>
<path fill="none" stroke="#000000" d="M387.0645,-95.6068C451.4808,-81.5259 574.351,-54.6673 657.2627,-36.5434"/>
<polygon fill="#000000" stroke="#000000" points="658.1473,-39.9328 667.1692,-34.3779 656.6524,-33.0942 658.1473,-39.9328"/>
<text text-anchor="middle" x="585.0934" y="-57.8" font-family="Times,serif" font-size="14.00" fill="#000000">entails</text>
</g>
</g>
</svg>
