<?xml version="1.0" encoding="UTF-8" standalone="no"?>
<!DOCTYPE svg PUBLIC "-//W3C//DTD SVG 1.1//EN"
 "http://www.w3.org/Graphics/SVG/1.1/DTD/svg11.dtd">
<!-- Generated by graphviz version 2.40.1 (20161225.0304)
 -->
<!-- Title: G Pages: 1 -->
<svg width="1031pt" height="218pt"
 viewBox="0.00 0.00 1030.84 218.00" xmlns="http://www.w3.org/2000/svg" xmlns:xlink="http://www.w3.org/1999/xlink">
<g id="graph0" class="graph" transform="scale(1 1) rotate(0) translate(4 214)">
<title>G</title>
<polygon fill="#ffffff" stroke="transparent" points="-4,4 -4,-214 1026.8368,-214 1026.8368,4 -4,4"/>
<!-- coronavirus disease&#45;2019 -->
<g id="node1" class="node">
<title>coronavirus disease&#45;2019</title>
<ellipse fill="none" stroke="#000000" cx="100.7411" cy="-192" rx="100.9827" ry="18"/>
<text text-anchor="middle" x="100.7411" y="-188.3" font-family="Times,serif" font-size="14.00" fill="#000000">coronavirus disease&#45;2019</text>
</g>
<!-- COVID&#45;19 -->
<g id="node2" class="node">
<title>COVID&#45;19</title>
<ellipse fill="none" stroke="#000000" cx="457.7411" cy="-105" rx="50.0912" ry="18"/>
<text text-anchor="middle" x="457.7411" y="-101.3" font-family="Times,serif" font-size="14.00" fill="#000000">COVID&#45;19</text>
</g>
<!-- coronavirus disease&#45;2019&#45;&gt;COVID&#45;19 -->
<g id="edge1" class="edge">
<title>coronavirus disease&#45;2019&#45;&gt;COVID&#45;19</title>
<path fill="none" stroke="#000000" d="M145.5689,-175.7651C176.9478,-164.8377 220.0176,-150.7064 258.7411,-141 306.204,-129.103 360.9681,-119.49 401.0166,-113.2001"/>
<polygon fill="#000000" stroke="#000000" points="401.78,-116.6237 411.1261,-111.6338 400.7081,-109.7063 401.78,-116.6237"/>
<text text-anchor="middle" x="281.2411" y="-144.8" font-family="Times,serif" font-size="14.00" fill="#000000">same&#45;as</text>
</g>
<!-- elderly -->
<g id="node3" class="node">
<title>elderly</title>
<ellipse fill="none" stroke="#000000" cx="170.7411" cy="-18" rx="35.194" ry="18"/>
<text text-anchor="middle" x="170.7411" y="-14.3" font-family="Times,serif" font-size="14.00" fill="#000000">elderly</text>
</g>
<!-- COVID&#45;19&#45;&gt;elderly -->
<g id="edge2" class="edge">
<title>COVID&#45;19&#45;&gt;elderly</title>
<path fill="none" stroke="#000000" d="M410.0636,-99.3491C372.1486,-93.997 318.1223,-84.4388 272.7411,-69 248.3078,-60.6878 222.3103,-47.6171 202.6768,-36.7893"/>
<polygon fill="#000000" stroke="#000000" points="204.2926,-33.6827 193.859,-31.8415 200.8671,-39.7873 204.2926,-33.6827"/>
<text text-anchor="middle" x="291.2411" y="-57.8" font-family="Times,serif" font-size="14.00" fill="#000000">affects</text>
</g>
<!-- kidney function -->
<g id="node4" class="node">
<title>kidney function</title>
<ellipse fill="none" stroke="#000000" cx="289.7411" cy="-18" rx="66.0889" ry="18"/>
<text text-anchor="middle" x="289.7411" y="-14.3" font-family="Times,serif" font-size="14.00" fill="#000000">kidney function</text>
</g>
<!-- COVID&#45;19&#45;&gt;kidney function -->
<g id="edge3" class="edge">
<title>COVID&#45;19&#45;&gt;kidney function</title>
<path fill="none" stroke="#000000" d="M410.3281,-98.9776C384.799,-94.0117 353.7194,-85.0524 329.7411,-69 320.2457,-62.6433 311.9896,-53.305 305.4835,-44.3507"/>
<polygon fill="#000000" stroke="#000000" points="308.317,-42.2932 299.7988,-35.9931 302.529,-46.2302 308.317,-42.2932"/>
<text text-anchor="middle" x="348.7411" y="-57.8" font-family="Times,serif" font-size="14.00" fill="#000000">impact</text>
</g>
<!-- patients -->
<g id="node5" class="node">
<title>patients</title>
<ellipse fill="none" stroke="#000000" cx="412.7411" cy="-18" rx="38.1938" ry="18"/>
<text text-anchor="middle" x="412.7411" y="-14.3" font-family="Times,serif" font-size="14.00" fill="#000000">patients</text>
</g>
<!-- COVID&#45;19&#45;&gt;patients -->
<g id="edge4" class="edge">
<title>COVID&#45;19&#45;&gt;patients</title>
<path fill="none" stroke="#000000" d="M413.7492,-96.2871C398.7872,-90.9948 383.6175,-82.5254 374.7411,-69 368.192,-59.0208 373.9498,-48.3755 382.7886,-39.4061"/>
<polygon fill="#000000" stroke="#000000" points="385.252,-41.8982 390.3614,-32.6168 380.5792,-36.6862 385.252,-41.8982"/>
<text text-anchor="middle" x="393.2411" y="-57.8" font-family="Times,serif" font-size="14.00" fill="#000000">affects</text>
</g>
<!-- people -->
<g id="node6" class="node">
<title>people</title>
<ellipse fill="none" stroke="#000000" cx="503.7411" cy="-18" rx="34.394" ry="18"/>
<text text-anchor="middle" x="503.7411" y="-14.3" font-family="Times,serif" font-size="14.00" fill="#000000">people</text>
</g>
<!-- COVID&#45;19&#45;&gt;people -->
<g id="edge5" class="edge">
<title>COVID&#45;19&#45;&gt;people</title>
<path fill="none" stroke="#000000" d="M466.7305,-86.9812C471.668,-77.1832 477.9491,-64.8777 483.7411,-54 485.4044,-50.8761 487.1723,-47.6143 488.942,-44.3848"/>
<polygon fill="#000000" stroke="#000000" points="492.0734,-45.9546 493.8495,-35.5096 485.9476,-42.5672 492.0734,-45.9546"/>
<text text-anchor="middle" x="505.7411" y="-57.8" font-family="Times,serif" font-size="14.00" fill="#000000">infected</text>
</g>
<!-- severe acute respiratory syndrome coronavirus -->
<g id="node7" class="node">
<title>severe acute respiratory syndrome coronavirus</title>
<ellipse fill="none" stroke="#000000" cx="732.7411" cy="-18" rx="176.2688" ry="18"/>
<text text-anchor="middle" x="732.7411" y="-14.3" font-family="Times,serif" font-size="14.00" fill="#000000">severe acute respiratory syndrome coronavirus</text>
</g>
<!-- COVID&#45;19&#45;&gt;severe acute respiratory syndrome coronavirus -->
<g id="edge6" class="edge">
<title>COVID&#45;19&#45;&gt;severe acute respiratory syndrome coronavirus</title>
<path fill="none" stroke="#000000" d="M495.4843,-93.0904C517.6886,-86.0816 546.3124,-77.0426 571.7411,-69 603.6385,-58.9115 639.0857,-47.6846 668.5817,-38.3382"/>
<polygon fill="#000000" stroke="#000000" points="669.8674,-41.6024 678.3429,-35.245 667.7527,-34.9294 669.8674,-41.6024"/>
<text text-anchor="middle" x="635.2411" y="-57.8" font-family="Times,serif" font-size="14.00" fill="#000000">similar</text>
</g>
<!-- worldwide -->
<g id="node8" class="node">
<title>worldwide</title>
<ellipse fill="none" stroke="#000000" cx="974.7411" cy="-18" rx="48.1917" ry="18"/>
<text text-anchor="middle" x="974.7411" y="-14.3" font-family="Times,serif" font-size="14.00" fill="#000000">worldwide</text>
</g>
<!-- COVID&#45;19&#45;&gt;worldwide -->
<g id="edge7" class="edge">
<title>COVID&#45;19&#45;&gt;worldwide</title>
<path fill="none" stroke="#000000" d="M506.222,-100.2606C590.607,-91.4502 769.6337,-70.27 917.7411,-36 921.5562,-35.1172 925.485,-34.1036 929.4111,-33.0169"/>
<polygon fill="#000000" stroke="#000000" points="930.4748,-36.3527 939.0987,-30.198 928.519,-29.6314 930.4748,-36.3527"/>
<text text-anchor="middle" x="847.7411" y="-57.8" font-family="Times,serif" font-size="14.00" fill="#000000">spread</text>
</g>
<!-- patients&#45;&gt;COVID&#45;19 -->
<g id="edge10" class="edge">
<title>patients&#45;&gt;COVID&#45;19</title>
<path fill="none" stroke="#000000" d="M419.5927,-35.7948C423.6271,-45.7453 429.0456,-58.2676 434.7411,-69 436.4262,-72.1753 438.2976,-75.4388 440.2245,-78.6431"/>
<polygon fill="#000000" stroke="#000000" points="437.4257,-80.769 445.6929,-87.395 443.3622,-77.0597 437.4257,-80.769"/>
<text text-anchor="middle" x="447.7411" y="-57.8" font-family="Times,serif" font-size="14.00" fill="#000000">have</text>
</g>
<!-- people&#45;&gt;COVID&#45;19 -->
<g id="edge11" class="edge">
<title>people&#45;&gt;COVID&#45;19</title>
<path fill="none" stroke="#000000" d="M519.5516,-34.082C527.6755,-44.3581 534.5713,-57.8067 527.7411,-69 522.6164,-77.3982 514.8382,-83.9199 506.3041,-88.9565"/>
<polygon fill="#000000" stroke="#000000" points="504.4728,-85.9638 497.2166,-93.6838 507.7033,-92.1738 504.4728,-85.9638"/>
<text text-anchor="middle" x="548.7411" y="-57.8" font-family="Times,serif" font-size="14.00" fill="#000000">impact</text>
</g>
<!-- infections -->
<g id="node9" class="node">
<title>infections</title>
<ellipse fill="none" stroke="#000000" cx="264.7411" cy="-192" rx="45.4919" ry="18"/>
<text text-anchor="middle" x="264.7411" y="-188.3" font-family="Times,serif" font-size="14.00" fill="#000000">infections</text>
</g>
<!-- infections&#45;&gt;COVID&#45;19 -->
<g id="edge8" class="edge">
<title>infections&#45;&gt;COVID&#45;19</title>
<path fill="none" stroke="#000000" d="M282.8271,-175.242C295.6444,-164.1506 313.7048,-150.0365 331.7411,-141 354.1546,-129.7704 380.6181,-121.538 403.4921,-115.8033"/>
<polygon fill="#000000" stroke="#000000" points="404.4842,-119.1645 413.3864,-113.4199 402.8448,-112.3592 404.4842,-119.1645"/>
<text text-anchor="middle" x="360.7411" y="-144.8" font-family="Times,serif" font-size="14.00" fill="#000000">exacerbate</text>
</g>
<!-- lymphopenia -->
<g id="node10" class="node">
<title>lymphopenia</title>
<ellipse fill="none" stroke="#000000" cx="385.7411" cy="-192" rx="57.3905" ry="18"/>
<text text-anchor="middle" x="385.7411" y="-188.3" font-family="Times,serif" font-size="14.00" fill="#000000">lymphopenia</text>
</g>
<!-- lymphopenia&#45;&gt;COVID&#45;19 -->
<g id="edge9" class="edge">
<title>lymphopenia&#45;&gt;COVID&#45;19</title>
<path fill="none" stroke="#000000" d="M388.3375,-173.5826C390.5363,-163.1934 394.5363,-150.4434 401.7411,-141 406.3198,-134.9985 412.2073,-129.716 418.4377,-125.1764"/>
<polygon fill="#000000" stroke="#000000" points="420.6646,-127.8989 427.0554,-119.4486 416.7898,-122.0691 420.6646,-127.8989"/>
<text text-anchor="middle" x="426.2411" y="-144.8" font-family="Times,serif" font-size="14.00" fill="#000000">indicator</text>
</g>
<!-- persons -->
<g id="node11" class="node">
<title>persons</title>
<ellipse fill="none" stroke="#000000" cx="498.7411" cy="-192" rx="37.8943" ry="18"/>
<text text-anchor="middle" x="498.7411" y="-188.3" font-family="Times,serif" font-size="14.00" fill="#000000">persons</text>
</g>
<!-- persons&#45;&gt;COVID&#45;19 -->
<g id="edge12" class="edge">
<title>persons&#45;&gt;COVID&#45;19</title>
<path fill="none" stroke="#000000" d="M476.1888,-177.3036C469.3019,-171.5543 462.5479,-164.327 458.7411,-156 455.5515,-149.0231 454.406,-140.9284 454.2864,-133.2711"/>
<polygon fill="#000000" stroke="#000000" points="457.785,-133.3713 454.6637,-123.2467 450.79,-133.108 457.785,-133.3713"/>
<text text-anchor="middle" x="487.7411" y="-144.8" font-family="Times,serif" font-size="14.00" fill="#000000">can spread</text>
</g>
<!-- persons&#45;&gt;COVID&#45;19 -->
<g id="edge13" class="edge">
<title>persons&#45;&gt;COVID&#45;19</title>
<path fill="none" stroke="#000000" d="M511.872,-174.8333C517.9804,-164.6295 522.7155,-151.6442 516.7411,-141 512.8593,-134.0841 507.0492,-128.3397 500.5652,-123.6228"/>
<polygon fill="#000000" stroke="#000000" points="502.3937,-120.6376 492.0862,-118.1868 498.6156,-126.5305 502.3937,-120.6376"/>
<text text-anchor="middle" x="534.7411" y="-144.8" font-family="Times,serif" font-size="14.00" fill="#000000">suffer</text>
</g>
<!-- strategies -->
<g id="node12" class="node">
<title>strategies</title>
<ellipse fill="none" stroke="#000000" cx="598.7411" cy="-192" rx="44.393" ry="18"/>
<text text-anchor="middle" x="598.7411" y="-188.3" font-family="Times,serif" font-size="14.00" fill="#000000">strategies</text>
</g>
<!-- strategies&#45;&gt;COVID&#45;19 -->
<g id="edge14" class="edge">
<title>strategies&#45;&gt;COVID&#45;19</title>
<path fill="none" stroke="#000000" d="M587.0551,-174.383C579.0625,-163.4946 567.6103,-149.9403 554.7411,-141 540.9362,-131.4097 524.2628,-124.0204 508.6625,-118.5044"/>
<polygon fill="#000000" stroke="#000000" points="509.7169,-115.1665 499.123,-115.3091 507.4935,-121.8041 509.7169,-115.1665"/>
<text text-anchor="middle" x="590.2411" y="-144.8" font-family="Times,serif" font-size="14.00" fill="#000000">control</text>
</g>
<!-- WHO -->
<g id="node13" class="node">
<title>WHO</title>
<ellipse fill="none" stroke="#000000" cx="693.7411" cy="-192" rx="32.4942" ry="18"/>
<text text-anchor="middle" x="693.7411" y="-188.3" font-family="Times,serif" font-size="14.00" fill="#000000">WHO</text>
</g>
<!-- WHO&#45;&gt;COVID&#45;19 -->
<g id="edge15" class="edge">
<title>WHO&#45;&gt;COVID&#45;19</title>
<path fill="none" stroke="#000000" d="M674.7253,-177.2297C659.1328,-165.7915 636.0689,-150.3656 613.7411,-141 582.0771,-127.7182 544.6459,-118.8719 514.3869,-113.2731"/>
<polygon fill="#000000" stroke="#000000" points="514.8777,-109.8055 504.4188,-111.4971 513.6499,-116.6969 514.8777,-109.8055"/>
<text text-anchor="middle" x="674.7411" y="-144.8" font-family="Times,serif" font-size="14.00" fill="#000000">has declared</text>
</g>
</g>
</svg>
