<?xml version="1.0" encoding="UTF-8" standalone="no"?>
<!DOCTYPE svg PUBLIC "-//W3C//DTD SVG 1.1//EN"
 "http://www.w3.org/Graphics/SVG/1.1/DTD/svg11.dtd">
<!-- Generated by graphviz version 2.40.1 (20161225.0304)
 -->
<!-- Title: G Pages: 1 -->
<svg width="842pt" height="218pt"
 viewBox="0.00 0.00 841.54 218.00" xmlns="http://www.w3.org/2000/svg" xmlns:xlink="http://www.w3.org/1999/xlink">
<g id="graph0" class="graph" transform="scale(1 1) rotate(0) translate(4 214)">
<title>G</title>
<polygon fill="#ffffff" stroke="transparent" points="-4,4 -4,-214 837.5404,-214 837.5404,4 -4,4"/>
<!-- COVID&#45;19 -->
<g id="node1" class="node">
<title>COVID&#45;19</title>
<ellipse fill="none" stroke="#000000" cx="385.4446" cy="-105" rx="50.0912" ry="18"/>
<text text-anchor="middle" x="385.4446" y="-101.3" font-family="Times,serif" font-size="14.00" fill="#000000">COVID&#45;19</text>
</g>
<!-- complications -->
<g id="node2" class="node">
<title>complications</title>
<ellipse fill="none" stroke="#000000" cx="60.4446" cy="-18" rx="60.3893" ry="18"/>
<text text-anchor="middle" x="60.4446" y="-14.3" font-family="Times,serif" font-size="14.00" fill="#000000">complications</text>
</g>
<!-- COVID&#45;19&#45;&gt;complications -->
<g id="edge1" class="edge">
<title>COVID&#45;19&#45;&gt;complications</title>
<path fill="none" stroke="#000000" d="M338.1209,-98.9476C298.0492,-93.1978 239.3324,-83.2952 189.4446,-69 159.9119,-60.5375 127.78,-47.845 102.9725,-37.2396"/>
<polygon fill="#000000" stroke="#000000" points="104.0714,-33.9015 93.5038,-33.1413 101.2908,-40.3256 104.0714,-33.9015"/>
<text text-anchor="middle" x="207.4446" y="-57.8" font-family="Times,serif" font-size="14.00" fill="#000000">causes</text>
</g>
<!-- cough -->
<g id="node3" class="node">
<title>cough</title>
<ellipse fill="none" stroke="#000000" cx="171.4446" cy="-18" rx="32.4942" ry="18"/>
<text text-anchor="middle" x="171.4446" y="-14.3" font-family="Times,serif" font-size="14.00" fill="#000000">cough</text>
</g>
<!-- COVID&#45;19&#45;&gt;cough -->
<g id="edge2" class="edge">
<title>COVID&#45;19&#45;&gt;cough</title>
<path fill="none" stroke="#000000" d="M342.5458,-95.5407C317.7462,-89.3875 286.2462,-80.3875 259.4446,-69 239.15,-60.3772 217.7157,-48.0316 201.0824,-37.6469"/>
<polygon fill="#000000" stroke="#000000" points="202.6912,-34.5224 192.3734,-32.1154 198.9382,-40.4313 202.6912,-34.5224"/>
<text text-anchor="middle" x="277.4446" y="-57.8" font-family="Times,serif" font-size="14.00" fill="#000000">causes</text>
</g>
<!-- fever -->
<g id="node4" class="node">
<title>fever</title>
<ellipse fill="none" stroke="#000000" cx="250.4446" cy="-18" rx="28.6953" ry="18"/>
<text text-anchor="middle" x="250.4446" y="-14.3" font-family="Times,serif" font-size="14.00" fill="#000000">fever</text>
</g>
<!-- COVID&#45;19&#45;&gt;fever -->
<g id="edge3" class="edge">
<title>COVID&#45;19&#45;&gt;fever</title>
<path fill="none" stroke="#000000" d="M356.8455,-90.1528C345.3469,-83.9287 332.0823,-76.4219 320.4446,-69 305.4694,-59.4495 289.4101,-47.8541 276.4556,-38.1343"/>
<polygon fill="#000000" stroke="#000000" points="278.5184,-35.3061 268.4337,-32.0583 274.2919,-40.8862 278.5184,-35.3061"/>
<text text-anchor="middle" x="338.4446" y="-57.8" font-family="Times,serif" font-size="14.00" fill="#000000">causes</text>
</g>
<!-- infection -->
<g id="node5" class="node">
<title>infection</title>
<ellipse fill="none" stroke="#000000" cx="339.4446" cy="-18" rx="42.4939" ry="18"/>
<text text-anchor="middle" x="339.4446" y="-14.3" font-family="Times,serif" font-size="14.00" fill="#000000">infection</text>
</g>
<!-- COVID&#45;19&#45;&gt;infection -->
<g id="edge4" class="edge">
<title>COVID&#45;19&#45;&gt;infection</title>
<path fill="none" stroke="#000000" d="M375.9134,-86.9735C369.4562,-74.7609 360.8121,-58.4123 353.5603,-44.697"/>
<polygon fill="#000000" stroke="#000000" points="356.5747,-42.9101 348.8063,-35.7057 350.3864,-46.182 356.5747,-42.9101"/>
<text text-anchor="middle" x="383.4446" y="-57.8" font-family="Times,serif" font-size="14.00" fill="#000000">causes</text>
</g>
<!-- injury -->
<g id="node6" class="node">
<title>injury</title>
<ellipse fill="none" stroke="#000000" cx="431.4446" cy="-18" rx="31.6951" ry="18"/>
<text text-anchor="middle" x="431.4446" y="-14.3" font-family="Times,serif" font-size="14.00" fill="#000000">injury</text>
</g>
<!-- COVID&#45;19&#45;&gt;injury -->
<g id="edge5" class="edge">
<title>COVID&#45;19&#45;&gt;injury</title>
<path fill="none" stroke="#000000" d="M395.5406,-87.1235C398.7504,-81.3617 402.2859,-74.9322 405.4446,-69 409.6288,-61.1419 414.0682,-52.5387 418.0719,-44.674"/>
<polygon fill="#000000" stroke="#000000" points="421.2985,-46.0493 422.693,-35.5467 415.0533,-42.8874 421.2985,-46.0493"/>
<text text-anchor="middle" x="431.4446" y="-57.8" font-family="Times,serif" font-size="14.00" fill="#000000">causes</text>
</g>
<!-- organic injury -->
<g id="node7" class="node">
<title>organic injury</title>
<ellipse fill="none" stroke="#000000" cx="541.4446" cy="-18" rx="60.3893" ry="18"/>
<text text-anchor="middle" x="541.4446" y="-14.3" font-family="Times,serif" font-size="14.00" fill="#000000">organic injury</text>
</g>
<!-- COVID&#45;19&#45;&gt;organic injury -->
<g id="edge6" class="edge">
<title>COVID&#45;19&#45;&gt;organic injury</title>
<path fill="none" stroke="#000000" d="M414.0287,-90.1783C426.2305,-83.7711 440.5927,-76.1227 453.4446,-69 470.616,-59.4834 489.4704,-48.6136 505.3072,-39.3609"/>
<polygon fill="#000000" stroke="#000000" points="507.3889,-42.1978 514.2475,-34.1224 503.85,-36.1582 507.3889,-42.1978"/>
<text text-anchor="middle" x="496.4446" y="-57.8" font-family="Times,serif" font-size="14.00" fill="#000000">causes</text>
</g>
<!-- pneumonia -->
<g id="node8" class="node">
<title>pneumonia</title>
<ellipse fill="none" stroke="#000000" cx="669.4446" cy="-18" rx="50.0912" ry="18"/>
<text text-anchor="middle" x="669.4446" y="-14.3" font-family="Times,serif" font-size="14.00" fill="#000000">pneumonia</text>
</g>
<!-- COVID&#45;19&#45;&gt;pneumonia -->
<g id="edge7" class="edge">
<title>COVID&#45;19&#45;&gt;pneumonia</title>
<path fill="none" stroke="#000000" d="M426.3761,-94.615C452.7726,-87.7471 487.7752,-78.3204 518.4446,-69 554.1233,-58.1573 594.0836,-44.5969 623.93,-34.185"/>
<polygon fill="#000000" stroke="#000000" points="625.3623,-37.3919 633.6434,-30.7832 623.0485,-30.7854 625.3623,-37.3919"/>
<text text-anchor="middle" x="582.4446" y="-57.8" font-family="Times,serif" font-size="14.00" fill="#000000">causes</text>
</g>
<!-- symptoms -->
<g id="node9" class="node">
<title>symptoms</title>
<ellipse fill="none" stroke="#000000" cx="785.4446" cy="-18" rx="48.1917" ry="18"/>
<text text-anchor="middle" x="785.4446" y="-14.3" font-family="Times,serif" font-size="14.00" fill="#000000">symptoms</text>
</g>
<!-- COVID&#45;19&#45;&gt;symptoms -->
<g id="edge8" class="edge">
<title>COVID&#45;19&#45;&gt;symptoms</title>
<path fill="none" stroke="#000000" d="M432.6857,-98.5886C477.2084,-92.2269 545.6757,-81.6192 604.4446,-69 660.203,-57.0273 673.6836,-51.9242 728.4446,-36 731.9915,-34.9686 735.6539,-33.876 739.3313,-32.7593"/>
<polygon fill="#000000" stroke="#000000" points="740.5042,-36.0603 749.031,-29.7719 738.4438,-29.3704 740.5042,-36.0603"/>
<text text-anchor="middle" x="683.4446" y="-57.8" font-family="Times,serif" font-size="14.00" fill="#000000">causes</text>
</g>
<!-- SARS&#45;CoV&#45;2 -->
<g id="node10" class="node">
<title>SARS&#45;CoV&#45;2</title>
<ellipse fill="none" stroke="#000000" cx="385.4446" cy="-192" rx="59.5901" ry="18"/>
<text text-anchor="middle" x="385.4446" y="-188.3" font-family="Times,serif" font-size="14.00" fill="#000000">SARS&#45;CoV&#45;2</text>
</g>
<!-- SARS&#45;CoV&#45;2&#45;&gt;COVID&#45;19 -->
<g id="edge9" class="edge">
<title>SARS&#45;CoV&#45;2&#45;&gt;COVID&#45;19</title>
<path fill="none" stroke="#000000" d="M385.4446,-173.9735C385.4446,-162.1918 385.4446,-146.5607 385.4446,-133.1581"/>
<polygon fill="#000000" stroke="#000000" points="388.9447,-133.0033 385.4446,-123.0034 381.9447,-133.0034 388.9447,-133.0033"/>
<text text-anchor="middle" x="403.4446" y="-144.8" font-family="Times,serif" font-size="14.00" fill="#000000">causes</text>
</g>
</g>
</svg>
