<?xml version="1.0" encoding="UTF-8" standalone="no"?>
<!DOCTYPE svg PUBLIC "-//W3C//DTD SVG 1.1//EN"
 "http://www.w3.org/Graphics/SVG/1.1/DTD/svg11.dtd">
<!-- Generated by graphviz version 2.40.1 (20161225.0304)
 -->
<!-- Title: G Pages: 1 -->
<svg width="338pt" height="131pt"
 viewBox="0.00 0.00 338.24 131.00" xmlns="http://www.w3.org/2000/svg" xmlns:xlink="http://www.w3.org/1999/xlink">
<g id="graph0" class="graph" transform="scale(1 1) rotate(0) translate(4 127)">
<title>G</title>
<polygon fill="#ffffff" stroke="transparent" points="-4,4 -4,-127 334.2439,-127 334.2439,4 -4,4"/>
<!-- COVID&#45;19 -->
<g id="node1" class="node">
<title>COVID&#45;19</title>
<ellipse fill="none" stroke="#000000" cx="167.6967" cy="-105" rx="50.0912" ry="18"/>
<text text-anchor="middle" x="167.6967" y="-101.3" font-family="Times,serif" font-size="14.00" fill="#000000">COVID&#45;19</text>
</g>
<!-- binding -->
<g id="node2" class="node">
<title>binding</title>
<ellipse fill="none" stroke="#000000" cx="37.6967" cy="-18" rx="37.8943" ry="18"/>
<text text-anchor="middle" x="37.6967" y="-14.3" font-family="Times,serif" font-size="14.00" fill="#000000">binding</text>
</g>
<!-- COVID&#45;19&#45;&gt;binding -->
<g id="edge1" class="edge">
<title>COVID&#45;19&#45;&gt;binding</title>
<path fill="none" stroke="#000000" d="M133.5357,-91.5692C119.9863,-85.5511 104.5934,-77.8157 91.6967,-69 80.3855,-61.2682 69.1616,-51.1693 59.901,-42"/>
<polygon fill="#000000" stroke="#000000" points="62.1282,-39.2727 52.6249,-34.5888 57.1331,-44.1767 62.1282,-39.2727"/>
<text text-anchor="middle" x="113.6967" y="-57.8" font-family="Times,serif" font-size="14.00" fill="#000000">has&#45;part</text>
</g>
<!-- loops -->
<g id="node3" class="node">
<title>loops</title>
<ellipse fill="none" stroke="#000000" cx="123.6967" cy="-18" rx="29.795" ry="18"/>
<text text-anchor="middle" x="123.6967" y="-14.3" font-family="Times,serif" font-size="14.00" fill="#000000">loops</text>
</g>
<!-- COVID&#45;19&#45;&gt;loops -->
<g id="edge2" class="edge">
<title>COVID&#45;19&#45;&gt;loops</title>
<path fill="none" stroke="#000000" d="M156.2212,-87.3416C152.6706,-81.5915 148.8633,-75.1138 145.6967,-69 141.7676,-61.4142 137.9232,-52.9708 134.5754,-45.172"/>
<polygon fill="#000000" stroke="#000000" points="137.7217,-43.6239 130.6315,-35.7512 131.2647,-46.3271 137.7217,-43.6239"/>
<text text-anchor="middle" x="167.6967" y="-57.8" font-family="Times,serif" font-size="14.00" fill="#000000">has&#45;part</text>
</g>
<!-- residues -->
<g id="node4" class="node">
<title>residues</title>
<ellipse fill="none" stroke="#000000" cx="211.6967" cy="-18" rx="39.7935" ry="18"/>
<text text-anchor="middle" x="211.6967" y="-14.3" font-family="Times,serif" font-size="14.00" fill="#000000">residues</text>
</g>
<!-- COVID&#45;19&#45;&gt;residues -->
<g id="edge3" class="edge">
<title>COVID&#45;19&#45;&gt;residues</title>
<path fill="none" stroke="#000000" d="M179.1722,-87.3416C182.7227,-81.5915 186.53,-75.1138 189.6967,-69 193.6257,-61.4142 197.4701,-52.9708 200.8179,-45.172"/>
<polygon fill="#000000" stroke="#000000" points="204.1286,-46.3271 204.7619,-35.7512 197.6716,-43.6239 204.1286,-46.3271"/>
<text text-anchor="middle" x="218.6967" y="-57.8" font-family="Times,serif" font-size="14.00" fill="#000000">has&#45;part</text>
</g>
<!-- strain -->
<g id="node5" class="node">
<title>strain</title>
<ellipse fill="none" stroke="#000000" cx="299.6967" cy="-18" rx="30.5947" ry="18"/>
<text text-anchor="middle" x="299.6967" y="-14.3" font-family="Times,serif" font-size="14.00" fill="#000000">strain</text>
</g>
<!-- COVID&#45;19&#45;&gt;strain -->
<g id="edge4" class="edge">
<title>COVID&#45;19&#45;&gt;strain</title>
<path fill="none" stroke="#000000" d="M201.8903,-91.7397C215.7057,-85.6981 231.4758,-77.9002 244.6967,-69 256.4593,-61.0814 268.1663,-50.672 277.7369,-41.3234"/>
<polygon fill="#000000" stroke="#000000" points="280.3345,-43.6751 284.9144,-34.1213 275.3763,-38.7338 280.3345,-43.6751"/>
<text text-anchor="middle" x="283.6967" y="-57.8" font-family="Times,serif" font-size="14.00" fill="#000000">has&#45;part</text>
</g>
</g>
</svg>
