<?xml version="1.0" encoding="UTF-8" standalone="no"?>
<!DOCTYPE svg PUBLIC "-//W3C//DTD SVG 1.1//EN"
 "http://www.w3.org/Graphics/SVG/1.1/DTD/svg11.dtd">
<!-- Generated by graphviz version 2.40.1 (20161225.0304)
 -->
<!-- Title: G Pages: 1 -->
<svg width="586pt" height="131pt"
 viewBox="0.00 0.00 585.98 131.00" xmlns="http://www.w3.org/2000/svg" xmlns:xlink="http://www.w3.org/1999/xlink">
<g id="graph0" class="graph" transform="scale(1 1) rotate(0) translate(4 127)">
<title>G</title>
<polygon fill="#ffffff" stroke="transparent" points="-4,4 -4,-127 581.9839,-127 581.9839,4 -4,4"/>
<!-- COVID&#45;19 -->
<g id="node1" class="node">
<title>COVID&#45;19</title>
<ellipse fill="none" stroke="#000000" cx="262.9429" cy="-105" rx="50.0912" ry="18"/>
<text text-anchor="middle" x="262.9429" y="-101.3" font-family="Times,serif" font-size="14.00" fill="#000000">COVID&#45;19</text>
</g>
<!-- coronavirus disease -->
<g id="node2" class="node">
<title>coronavirus disease</title>
<ellipse fill="none" stroke="#000000" cx="79.9429" cy="-18" rx="79.8859" ry="18"/>
<text text-anchor="middle" x="79.9429" y="-14.3" font-family="Times,serif" font-size="14.00" fill="#000000">coronavirus disease</text>
</g>
<!-- COVID&#45;19&#45;&gt;coronavirus disease -->
<g id="edge1" class="edge">
<title>COVID&#45;19&#45;&gt;coronavirus disease</title>
<path fill="none" stroke="#000000" d="M232.7242,-90.6337C202.9374,-76.4728 157.1152,-54.6885 123.4189,-38.6689"/>
<polygon fill="#000000" stroke="#000000" points="124.7939,-35.4472 114.2598,-34.3146 121.7883,-41.7692 124.7939,-35.4472"/>
<text text-anchor="middle" x="192.9429" y="-57.8" font-family="Times,serif" font-size="14.00" fill="#000000">is&#45;a</text>
</g>
<!-- disease -->
<g id="node3" class="node">
<title>disease</title>
<ellipse fill="none" stroke="#000000" cx="213.9429" cy="-18" rx="36.2938" ry="18"/>
<text text-anchor="middle" x="213.9429" y="-14.3" font-family="Times,serif" font-size="14.00" fill="#000000">disease</text>
</g>
<!-- COVID&#45;19&#45;&gt;disease -->
<g id="edge2" class="edge">
<title>COVID&#45;19&#45;&gt;disease</title>
<path fill="none" stroke="#000000" d="M252.7901,-86.9735C245.8662,-74.6801 236.5818,-58.1956 228.8259,-44.4249"/>
<polygon fill="#000000" stroke="#000000" points="231.7054,-42.4052 223.7484,-35.4097 225.6062,-45.8404 231.7054,-42.4052"/>
<text text-anchor="middle" x="251.9429" y="-57.8" font-family="Times,serif" font-size="14.00" fill="#000000">is&#45;a</text>
</g>
<!-- epidemic -->
<g id="node4" class="node">
<title>epidemic</title>
<ellipse fill="none" stroke="#000000" cx="311.9429" cy="-18" rx="43.5923" ry="18"/>
<text text-anchor="middle" x="311.9429" y="-14.3" font-family="Times,serif" font-size="14.00" fill="#000000">epidemic</text>
</g>
<!-- COVID&#45;19&#45;&gt;epidemic -->
<g id="edge3" class="edge">
<title>COVID&#45;19&#45;&gt;epidemic</title>
<path fill="none" stroke="#000000" d="M273.0957,-86.9735C279.9741,-74.7609 289.1819,-58.4123 296.9067,-44.697"/>
<polygon fill="#000000" stroke="#000000" points="300.1129,-46.1364 301.9707,-35.7057 294.0137,-42.7012 300.1129,-46.1364"/>
<text text-anchor="middle" x="300.9429" y="-57.8" font-family="Times,serif" font-size="14.00" fill="#000000">is&#45;a</text>
</g>
<!-- novel coronavirus disease -->
<g id="node5" class="node">
<title>novel coronavirus disease</title>
<ellipse fill="none" stroke="#000000" cx="475.9429" cy="-18" rx="102.0819" ry="18"/>
<text text-anchor="middle" x="475.9429" y="-14.3" font-family="Times,serif" font-size="14.00" fill="#000000">novel coronavirus disease</text>
</g>
<!-- COVID&#45;19&#45;&gt;novel coronavirus disease -->
<g id="edge4" class="edge">
<title>COVID&#45;19&#45;&gt;novel coronavirus disease</title>
<path fill="none" stroke="#000000" d="M296.2242,-91.4063C330.995,-77.2041 385.9477,-54.7586 425.9403,-38.4236"/>
<polygon fill="#000000" stroke="#000000" points="427.3181,-41.6416 435.2522,-34.6201 424.6712,-35.1613 427.3181,-41.6416"/>
<text text-anchor="middle" x="392.9429" y="-57.8" font-family="Times,serif" font-size="14.00" fill="#000000">is&#45;a</text>
</g>
</g>
</svg>
