<?xml version="1.0" encoding="UTF-8" standalone="no"?>
<!DOCTYPE svg PUBLIC "-//W3C//DTD SVG 1.1//EN"
 "http://www.w3.org/Graphics/SVG/1.1/DTD/svg11.dtd">
<!-- Generated by graphviz version 2.40.1 (20161225.0304)
 -->
<!-- Title: G Pages: 1 -->
<svg width="2252pt" height="131pt"
 viewBox="0.00 0.00 2252.09 131.00" xmlns="http://www.w3.org/2000/svg" xmlns:xlink="http://www.w3.org/1999/xlink">
<g id="graph0" class="graph" transform="scale(1 1) rotate(0) translate(4 127)">
<title>G</title>
<polygon fill="#ffffff" stroke="transparent" points="-4,4 -4,-127 2248.09,-127 2248.09,4 -4,4"/>
<!-- COVID&#45;19 -->
<g id="node1" class="node">
<title>COVID&#45;19</title>
<ellipse fill="none" stroke="#000000" cx="1129.4458" cy="-105" rx="50.0912" ry="18"/>
<text text-anchor="middle" x="1129.4458" y="-101.3" font-family="Times,serif" font-size="14.00" fill="#000000">COVID&#45;19</text>
</g>
<!-- confirmed -->
<g id="node2" class="node">
<title>confirmed</title>
<ellipse fill="none" stroke="#000000" cx="47.4458" cy="-18" rx="47.3916" ry="18"/>
<text text-anchor="middle" x="47.4458" y="-14.3" font-family="Times,serif" font-size="14.00" fill="#000000">confirmed</text>
</g>
<!-- COVID&#45;19&#45;&gt;confirmed -->
<g id="edge1" class="edge">
<title>COVID&#45;19&#45;&gt;confirmed</title>
<path fill="none" stroke="#000000" d="M1079.2309,-104.4998C890.9514,-102.4419 233.058,-93.5489 142.4458,-69 119.8282,-62.8724 96.6149,-50.543 78.7965,-39.5422"/>
<polygon fill="#000000" stroke="#000000" points="80.3187,-36.3625 70.0021,-33.9504 76.5628,-42.2696 80.3187,-36.3625"/>
<text text-anchor="middle" x="176.9458" y="-57.8" font-family="Times,serif" font-size="14.00" fill="#000000">has&#45;property</text>
</g>
<!-- contagious -->
<g id="node3" class="node">
<title>contagious</title>
<ellipse fill="none" stroke="#000000" cx="161.4458" cy="-18" rx="48.9926" ry="18"/>
<text text-anchor="middle" x="161.4458" y="-14.3" font-family="Times,serif" font-size="14.00" fill="#000000">contagious</text>
</g>
<!-- COVID&#45;19&#45;&gt;contagious -->
<g id="edge2" class="edge">
<title>COVID&#45;19&#45;&gt;contagious</title>
<path fill="none" stroke="#000000" d="M1079.2187,-104.3843C904.1376,-102.0409 327.0684,-92.59 247.4458,-69 227.0836,-62.9672 206.542,-51.0526 190.643,-40.2559"/>
<polygon fill="#000000" stroke="#000000" points="192.5153,-37.294 182.3185,-34.4172 188.4957,-43.0249 192.5153,-37.294"/>
<text text-anchor="middle" x="281.9458" y="-57.8" font-family="Times,serif" font-size="14.00" fill="#000000">has&#45;property</text>
</g>
<!-- disparity -->
<g id="node4" class="node">
<title>disparity</title>
<ellipse fill="none" stroke="#000000" cx="269.4458" cy="-18" rx="41.6928" ry="18"/>
<text text-anchor="middle" x="269.4458" y="-14.3" font-family="Times,serif" font-size="14.00" fill="#000000">disparity</text>
</g>
<!-- COVID&#45;19&#45;&gt;disparity -->
<g id="edge3" class="edge">
<title>COVID&#45;19&#45;&gt;disparity</title>
<path fill="none" stroke="#000000" d="M1079.3545,-104.1497C918.3536,-101.2136 420.5664,-90.4816 351.4458,-69 331.9066,-62.9275 312.3604,-51.0535 297.2548,-40.2898"/>
<polygon fill="#000000" stroke="#000000" points="299.0329,-37.2522 288.9076,-34.1329 294.8777,-42.8856 299.0329,-37.2522"/>
<text text-anchor="middle" x="385.9458" y="-57.8" font-family="Times,serif" font-size="14.00" fill="#000000">has&#45;property</text>
</g>
<!-- duration -->
<g id="node5" class="node">
<title>duration</title>
<ellipse fill="none" stroke="#000000" cx="369.4458" cy="-18" rx="40.0939" ry="18"/>
<text text-anchor="middle" x="369.4458" y="-14.3" font-family="Times,serif" font-size="14.00" fill="#000000">duration</text>
</g>
<!-- COVID&#45;19&#45;&gt;duration -->
<g id="edge4" class="edge">
<title>COVID&#45;19&#45;&gt;duration</title>
<path fill="none" stroke="#000000" d="M1079.3328,-103.6858C933.4287,-99.6683 515.4875,-86.7364 456.4458,-69 435.507,-62.7099 414.2948,-50.4213 398.0582,-39.4829"/>
<polygon fill="#000000" stroke="#000000" points="399.7919,-36.4255 389.5831,-33.5916 395.7965,-42.1733 399.7919,-36.4255"/>
<text text-anchor="middle" x="490.9458" y="-57.8" font-family="Times,serif" font-size="14.00" fill="#000000">has&#45;property</text>
</g>
<!-- fatality -->
<g id="node6" class="node">
<title>fatality</title>
<ellipse fill="none" stroke="#000000" cx="463.4458" cy="-18" rx="35.9954" ry="18"/>
<text text-anchor="middle" x="463.4458" y="-14.3" font-family="Times,serif" font-size="14.00" fill="#000000">fatality</text>
</g>
<!-- COVID&#45;19&#45;&gt;fatality -->
<g id="edge5" class="edge">
<title>COVID&#45;19&#45;&gt;fatality</title>
<path fill="none" stroke="#000000" d="M1079.1418,-104.2533C960.1302,-102.0876 664.1063,-94.2551 568.4458,-69 542.4481,-62.1364 515.1941,-48.688 494.9693,-37.324"/>
<polygon fill="#000000" stroke="#000000" points="496.6147,-34.2328 486.2013,-32.2805 493.1244,-40.3006 496.6147,-34.2328"/>
<text text-anchor="middle" x="602.9458" y="-57.8" font-family="Times,serif" font-size="14.00" fill="#000000">has&#45;property</text>
</g>
<!-- global -->
<g id="node7" class="node">
<title>global</title>
<ellipse fill="none" stroke="#000000" cx="549.4458" cy="-18" rx="32.4942" ry="18"/>
<text text-anchor="middle" x="549.4458" y="-14.3" font-family="Times,serif" font-size="14.00" fill="#000000">global</text>
</g>
<!-- COVID&#45;19&#45;&gt;global -->
<g id="edge6" class="edge">
<title>COVID&#45;19&#45;&gt;global</title>
<path fill="none" stroke="#000000" d="M1079.3249,-104.213C998.6288,-102.1855 835.2072,-94.9341 699.4458,-69 649.7288,-59.5027 637.9261,-53.5383 590.4458,-36 588.3721,-35.234 586.2531,-34.4161 584.1246,-33.5672"/>
<polygon fill="#000000" stroke="#000000" points="585.4194,-30.3152 574.8418,-29.7125 582.7349,-36.7799 585.4194,-30.3152"/>
<text text-anchor="middle" x="733.9458" y="-57.8" font-family="Times,serif" font-size="14.00" fill="#000000">has&#45;property</text>
</g>
<!-- incubation period -->
<g id="node8" class="node">
<title>incubation period</title>
<ellipse fill="none" stroke="#000000" cx="672.4458" cy="-18" rx="72.5877" ry="18"/>
<text text-anchor="middle" x="672.4458" y="-14.3" font-family="Times,serif" font-size="14.00" fill="#000000">incubation period</text>
</g>
<!-- COVID&#45;19&#45;&gt;incubation period -->
<g id="edge7" class="edge">
<title>COVID&#45;19&#45;&gt;incubation period</title>
<path fill="none" stroke="#000000" d="M1079.7208,-102.4013C1018.5503,-98.4667 911.8233,-89.1964 822.4458,-69 787.3738,-61.0749 749.0076,-47.9453 719.8563,-36.9929"/>
<polygon fill="#000000" stroke="#000000" points="720.9326,-33.6576 710.3416,-33.3727 718.4433,-40.2001 720.9326,-33.6576"/>
<text text-anchor="middle" x="856.9458" y="-57.8" font-family="Times,serif" font-size="14.00" fill="#000000">has&#45;property</text>
</g>
<!-- infectious -->
<g id="node9" class="node">
<title>infectious</title>
<ellipse fill="none" stroke="#000000" cx="808.4458" cy="-18" rx="45.4919" ry="18"/>
<text text-anchor="middle" x="808.4458" y="-14.3" font-family="Times,serif" font-size="14.00" fill="#000000">infectious</text>
</g>
<!-- COVID&#45;19&#45;&gt;infectious -->
<g id="edge8" class="edge">
<title>COVID&#45;19&#45;&gt;infectious</title>
<path fill="none" stroke="#000000" d="M1082.5605,-98.674C1043.5405,-92.8135 986.7646,-82.8983 938.4458,-69 907.2492,-60.0267 873.1236,-46.4886 847.6669,-35.6154"/>
<polygon fill="#000000" stroke="#000000" points="848.927,-32.3472 838.359,-31.5937 846.1505,-38.773 848.927,-32.3472"/>
<text text-anchor="middle" x="972.9458" y="-57.8" font-family="Times,serif" font-size="14.00" fill="#000000">has&#45;property</text>
</g>
<!-- infectivity -->
<g id="node10" class="node">
<title>infectivity</title>
<ellipse fill="none" stroke="#000000" cx="918.4458" cy="-18" rx="46.5926" ry="18"/>
<text text-anchor="middle" x="918.4458" y="-14.3" font-family="Times,serif" font-size="14.00" fill="#000000">infectivity</text>
</g>
<!-- COVID&#45;19&#45;&gt;infectivity -->
<g id="edge9" class="edge">
<title>COVID&#45;19&#45;&gt;infectivity</title>
<path fill="none" stroke="#000000" d="M1096.477,-91.4063C1059.6426,-76.2186 999.945,-51.6039 959.9575,-35.1162"/>
<polygon fill="#000000" stroke="#000000" points="961.0713,-31.7897 950.4921,-31.2134 958.4029,-38.2611 961.0713,-31.7897"/>
<text text-anchor="middle" x="1071.9458" y="-57.8" font-family="Times,serif" font-size="14.00" fill="#000000">has&#45;property</text>
</g>
<!-- interpersonal transmission capabilities -->
<g id="node11" class="node">
<title>interpersonal transmission capabilities</title>
<ellipse fill="none" stroke="#000000" cx="1129.4458" cy="-18" rx="146.4744" ry="18"/>
<text text-anchor="middle" x="1129.4458" y="-14.3" font-family="Times,serif" font-size="14.00" fill="#000000">interpersonal transmission capabilities</text>
</g>
<!-- COVID&#45;19&#45;&gt;interpersonal transmission capabilities -->
<g id="edge10" class="edge">
<title>COVID&#45;19&#45;&gt;interpersonal transmission capabilities</title>
<path fill="none" stroke="#000000" d="M1129.4458,-86.9735C1129.4458,-75.1918 1129.4458,-59.5607 1129.4458,-46.1581"/>
<polygon fill="#000000" stroke="#000000" points="1132.9459,-46.0033 1129.4458,-36.0034 1125.9459,-46.0034 1132.9459,-46.0033"/>
<text text-anchor="middle" x="1163.9458" y="-57.8" font-family="Times,serif" font-size="14.00" fill="#000000">has&#45;property</text>
</g>
<!-- mild -->
<g id="node12" class="node">
<title>mild</title>
<ellipse fill="none" stroke="#000000" cx="1321.4458" cy="-18" rx="27.0966" ry="18"/>
<text text-anchor="middle" x="1321.4458" y="-14.3" font-family="Times,serif" font-size="14.00" fill="#000000">mild</text>
</g>
<!-- COVID&#45;19&#45;&gt;mild -->
<g id="edge11" class="edge">
<title>COVID&#45;19&#45;&gt;mild</title>
<path fill="none" stroke="#000000" d="M1161.6504,-91.044C1193.1015,-77.3251 1242.2559,-55.6462 1284.4458,-36 1286.2428,-35.1632 1288.085,-34.2963 1289.9414,-33.4157"/>
<polygon fill="#000000" stroke="#000000" points="1291.6975,-36.4552 1299.1995,-28.9739 1288.6694,-30.144 1291.6975,-36.4552"/>
<text text-anchor="middle" x="1276.9458" y="-57.8" font-family="Times,serif" font-size="14.00" fill="#000000">has&#45;property</text>
</g>
<!-- more contagious -->
<g id="node13" class="node">
<title>more contagious</title>
<ellipse fill="none" stroke="#000000" cx="1436.4458" cy="-18" rx="69.5877" ry="18"/>
<text text-anchor="middle" x="1436.4458" y="-14.3" font-family="Times,serif" font-size="14.00" fill="#000000">more contagious</text>
</g>
<!-- COVID&#45;19&#45;&gt;more contagious -->
<g id="edge12" class="edge">
<title>COVID&#45;19&#45;&gt;more contagious</title>
<path fill="none" stroke="#000000" d="M1176.3441,-98.6835C1214.3522,-92.9088 1269.0279,-83.1068 1315.4458,-69 1342.476,-60.7853 1371.6914,-48.5726 1394.642,-38.1576"/>
<polygon fill="#000000" stroke="#000000" points="1396.1258,-41.3277 1403.7494,-33.9703 1393.2016,-34.9677 1396.1258,-41.3277"/>
<text text-anchor="middle" x="1390.9458" y="-57.8" font-family="Times,serif" font-size="14.00" fill="#000000">has&#45;property</text>
</g>
<!-- novel -->
<g id="node14" class="node">
<title>novel</title>
<ellipse fill="none" stroke="#000000" cx="1554.4458" cy="-18" rx="30.5947" ry="18"/>
<text text-anchor="middle" x="1554.4458" y="-14.3" font-family="Times,serif" font-size="14.00" fill="#000000">novel</text>
</g>
<!-- COVID&#45;19&#45;&gt;novel -->
<g id="edge13" class="edge">
<title>COVID&#45;19&#45;&gt;novel</title>
<path fill="none" stroke="#000000" d="M1179.2269,-102.7879C1239.3009,-99.2607 1343.0143,-90.4182 1429.4458,-69 1461.9819,-60.9374 1497.177,-45.9664 1521.9058,-34.3221"/>
<polygon fill="#000000" stroke="#000000" points="1523.6628,-37.3613 1531.1696,-29.8847 1520.6388,-31.0482 1523.6628,-37.3613"/>
<text text-anchor="middle" x="1509.9458" y="-57.8" font-family="Times,serif" font-size="14.00" fill="#000000">has&#45;property</text>
</g>
<!-- rare -->
<g id="node15" class="node">
<title>rare</title>
<ellipse fill="none" stroke="#000000" cx="1630.4458" cy="-18" rx="27" ry="18"/>
<text text-anchor="middle" x="1630.4458" y="-14.3" font-family="Times,serif" font-size="14.00" fill="#000000">rare</text>
</g>
<!-- COVID&#45;19&#45;&gt;rare -->
<g id="edge14" class="edge">
<title>COVID&#45;19&#45;&gt;rare</title>
<path fill="none" stroke="#000000" d="M1179.4455,-103.6207C1275.2716,-100.4993 1481.2438,-91.3488 1548.4458,-69 1568.7922,-62.2335 1589.2759,-49.4984 1604.6811,-38.4474"/>
<polygon fill="#000000" stroke="#000000" points="1607.1724,-40.9577 1613.1251,-32.1933 1603.0061,-35.3326 1607.1724,-40.9577"/>
<text text-anchor="middle" x="1614.9458" y="-57.8" font-family="Times,serif" font-size="14.00" fill="#000000">has&#45;property</text>
</g>
<!-- regional disparity -->
<g id="node16" class="node">
<title>regional disparity</title>
<ellipse fill="none" stroke="#000000" cx="1748.4458" cy="-18" rx="72.5877" ry="18"/>
<text text-anchor="middle" x="1748.4458" y="-14.3" font-family="Times,serif" font-size="14.00" fill="#000000">regional disparity</text>
</g>
<!-- COVID&#45;19&#45;&gt;regional disparity -->
<g id="edge15" class="edge">
<title>COVID&#45;19&#45;&gt;regional disparity</title>
<path fill="none" stroke="#000000" d="M1179.8425,-104.2357C1293.2565,-102.0802 1565.4979,-94.3507 1653.4458,-69 1675.1961,-62.7305 1697.5949,-51.0049 1715.1766,-40.3765"/>
<polygon fill="#000000" stroke="#000000" points="1717.2569,-43.2045 1723.9027,-34.9532 1713.5618,-37.2592 1717.2569,-43.2045"/>
<text text-anchor="middle" x="1723.9458" y="-57.8" font-family="Times,serif" font-size="14.00" fill="#000000">has&#45;property</text>
</g>
<!-- severe -->
<g id="node17" class="node">
<title>severe</title>
<ellipse fill="none" stroke="#000000" cx="1872.4458" cy="-18" rx="33.2948" ry="18"/>
<text text-anchor="middle" x="1872.4458" y="-14.3" font-family="Times,serif" font-size="14.00" fill="#000000">severe</text>
</g>
<!-- COVID&#45;19&#45;&gt;severe -->
<g id="edge16" class="edge">
<title>COVID&#45;19&#45;&gt;severe</title>
<path fill="none" stroke="#000000" d="M1179.8686,-104.5696C1309.6047,-103.0733 1652.4689,-96.552 1762.4458,-69 1790.3711,-62.004 1819.8532,-47.9276 1841.259,-36.3326"/>
<polygon fill="#000000" stroke="#000000" points="1843.1491,-39.2867 1850.2002,-31.379 1839.7567,-33.1636 1843.1491,-39.2867"/>
<text text-anchor="middle" x="1837.9458" y="-57.8" font-family="Times,serif" font-size="14.00" fill="#000000">has&#45;property</text>
</g>
<!-- severity -->
<g id="node18" class="node">
<title>severity</title>
<ellipse fill="none" stroke="#000000" cx="1961.4458" cy="-18" rx="38.1938" ry="18"/>
<text text-anchor="middle" x="1961.4458" y="-14.3" font-family="Times,serif" font-size="14.00" fill="#000000">severity</text>
</g>
<!-- COVID&#45;19&#45;&gt;severity -->
<g id="edge17" class="edge">
<title>COVID&#45;19&#45;&gt;severity</title>
<path fill="none" stroke="#000000" d="M1179.44,-104.0033C1335.9765,-100.6861 1810.2017,-89.0778 1876.4458,-69 1897.0122,-62.7666 1917.7393,-50.4794 1933.5768,-39.5275"/>
<polygon fill="#000000" stroke="#000000" points="1935.7356,-42.2868 1941.8403,-33.6275 1931.668,-36.5898 1935.7356,-42.2868"/>
<text text-anchor="middle" x="1943.9458" y="-57.8" font-family="Times,serif" font-size="14.00" fill="#000000">has&#45;property</text>
</g>
<!-- subtype -->
<g id="node19" class="node">
<title>subtype</title>
<ellipse fill="none" stroke="#000000" cx="2056.4458" cy="-18" rx="38.1938" ry="18"/>
<text text-anchor="middle" x="2056.4458" y="-14.3" font-family="Times,serif" font-size="14.00" fill="#000000">subtype</text>
</g>
<!-- COVID&#45;19&#45;&gt;subtype -->
<g id="edge18" class="edge">
<title>COVID&#45;19&#45;&gt;subtype</title>
<path fill="none" stroke="#000000" d="M1179.5565,-104.501C1350.8199,-102.573 1906.4961,-94.4057 1982.4458,-69 2000.3362,-63.0155 2017.8339,-51.3079 2031.3194,-40.618"/>
<polygon fill="#000000" stroke="#000000" points="2033.6728,-43.214 2039.1651,-34.1538 2029.2216,-37.8115 2033.6728,-43.214"/>
<text text-anchor="middle" x="2045.9458" y="-57.8" font-family="Times,serif" font-size="14.00" fill="#000000">has&#45;property</text>
</g>
<!-- transmissibility -->
<g id="node20" class="node">
<title>transmissibility</title>
<ellipse fill="none" stroke="#000000" cx="2178.4458" cy="-18" rx="65.7887" ry="18"/>
<text text-anchor="middle" x="2178.4458" y="-14.3" font-family="Times,serif" font-size="14.00" fill="#000000">transmissibility</text>
</g>
<!-- COVID&#45;19&#45;&gt;transmissibility -->
<g id="edge19" class="edge">
<title>COVID&#45;19&#45;&gt;transmissibility</title>
<path fill="none" stroke="#000000" d="M1179.6075,-104.4466C1363.8553,-102.2306 1997.0848,-92.9329 2084.4458,-69 2106.2516,-63.0262 2128.5816,-51.1959 2146.0032,-40.4324"/>
<polygon fill="#000000" stroke="#000000" points="2148.08,-43.2594 2154.6373,-34.9377 2144.3217,-37.3539 2148.08,-43.2594"/>
<text text-anchor="middle" x="2153.9458" y="-57.8" font-family="Times,serif" font-size="14.00" fill="#000000">has&#45;property</text>
</g>
</g>
</svg>
